<svg width="21" height="21" viewBox="0 0 21 21" fill="none" xmlns="http://www.w3.org/2000/svg">
<path d="M10.0625 18.8125V14.5758L6.78125 17.8132L6.16175 17.1937L10.0625 13.293V10.9375H7.707L3.80625 14.8383L3.18675 14.2188L6.42425 10.9375H2.1875V10.0625H6.42425L3.18675 6.78125L3.80625 6.16175L7.707 10.0625H10.0625V7.707L6.16175 3.80625L6.78125 3.18675L10.0625 6.42425V2.1875H10.9375V6.42425L14.2188 3.18675L14.8383 3.80625L10.9375 7.707V10.0625H13.293L17.1937 6.16175L17.8132 6.78125L14.5758 10.0625H18.8125V10.9375H14.5758L17.8132 14.2188L17.1937 14.8383L13.293 10.9375H10.9375V13.293L14.8383 17.1937L14.2188 17.8132L10.9375 14.5758V18.8125H10.0625Z" fill="#FF7700"/>
</svg>
