<svg width="21" height="21" viewBox="0 0 21 21" fill="none" xmlns="http://www.w3.org/2000/svg">
<path d="M5.0625 2.25C4.31658 2.25 3.60121 2.54632 3.07376 3.07376C2.54632 3.60121 2.25 4.31658 2.25 5.0625V15.9375C2.25 16.6834 2.54632 17.3988 3.07376 17.9262C3.60121 18.4537 4.31658 18.75 5.0625 18.75H15.9375C16.6834 18.75 17.3988 18.4537 17.9262 17.9262C18.4537 17.3988 18.75 16.6834 18.75 15.9375V5.0625C18.75 4.31658 18.4537 3.60121 17.9262 3.07376C17.3988 2.54632 16.6834 2.25 15.9375 2.25H5.0625ZM3.375 5.0625C3.375 4.61495 3.55279 4.18573 3.86926 3.86926C4.18573 3.55279 4.61495 3.375 5.0625 3.375H10.125V7.125H3.375V5.0625ZM3.375 8.25H10.125V17.625H5.0625C4.61495 17.625 4.18573 17.4472 3.86926 17.1307C3.55279 16.8143 3.375 16.3851 3.375 15.9375V8.25ZM11.25 17.625V13.5H17.625V15.9375C17.625 16.3851 17.4472 16.8143 17.1307 17.1307C16.8143 17.4472 16.3851 17.625 15.9375 17.625H11.25ZM17.625 12.375H11.25V3.375H15.9375C16.3851 3.375 16.8143 3.55279 17.1307 3.86926C17.4472 4.18573 17.625 4.61495 17.625 5.0625V12.375Z" fill="#FF7700"/>
</svg>
