<svg width="22" height="22" viewBox="0 0 22 22" fill="none" xmlns="http://www.w3.org/2000/svg">
<path d="M19.6667 9.33333C19.6667 5.87658 19.6657 4.14867 18.5923 3.07433C17.5189 2 15.7901 2 12.3333 2C8.87658 2 7.14867 2.00092 6.07433 3.07433C5 4.14775 5 5.87658 5 9.33333M19.6667 9.33333V13C19.6667 16.4567 19.6667 18.1856 18.5923 19.259C17.518 20.3324 15.7901 20.3333 12.3333 20.3333C8.87658 20.3333 7.14775 20.3333 6.07433 19.259C5.00092 18.1847 5 16.4567 5 13V9.33333M19.6667 9.33333H5M8.66667 5.66667H8.67492M8.66667 15.75V13" stroke="#FF7700" stroke-linecap="round" stroke-linejoin="round"/>
</svg>
