<svg width="16" height="19" viewBox="0 0 16 19" fill="none" xmlns="http://www.w3.org/2000/svg">
<path d="M5.685 8.544C5.685 8.98867 5.784 9.406 5.982 9.796C6.18 10.186 6.456 10.506 6.81 10.756C6.784 10.7047 6.76767 10.6533 6.761 10.602C6.755 10.5507 6.752 10.493 6.752 10.429C6.76 10.2157 6.80733 10.0133 6.894 9.822C6.98067 9.63067 7.10567 9.45533 7.269 9.296L8.5 8.077L9.744 9.302C9.90733 9.46133 10.0293 9.63567 10.11 9.825C10.19 10.015 10.234 10.2163 10.242 10.429C10.242 10.493 10.2387 10.5507 10.232 10.602C10.226 10.6533 10.2103 10.7047 10.185 10.756C10.535 10.506 10.8127 10.188 11.018 9.802C11.224 9.416 11.327 9.00067 11.327 8.556C11.327 8.17533 11.261 7.81667 11.129 7.48C10.997 7.14333 10.799 6.837 10.535 6.561C10.377 6.65767 10.2087 6.73433 10.03 6.791C9.85133 6.847 9.668 6.875 9.48 6.875C8.99333 6.875 8.55767 6.71733 8.173 6.402C7.78833 6.08667 7.55167 5.689 7.463 5.209C7.18633 5.44767 6.936 5.702 6.712 5.972C6.48733 6.242 6.29967 6.518 6.149 6.8C5.99833 7.082 5.88333 7.369 5.804 7.661C5.72467 7.953 5.68467 8.24733 5.684 8.544M8.5 9.331L7.883 9.929C7.803 10.0083 7.741 10.0973 7.697 10.196C7.653 10.2947 7.631 10.405 7.631 10.527C7.631 10.7703 7.715 10.971 7.883 11.129C8.051 11.287 8.25667 11.366 8.5 11.366C8.74333 11.366 8.949 11.287 9.117 11.129C9.285 10.971 9.369 10.7703 9.369 10.527C9.369 10.405 9.347 10.295 9.303 10.197C9.259 10.0977 9.197 10.0083 9.117 9.929L8.5 9.331ZM8.308 3.539V4.842C8.308 5.164 8.424 5.437 8.656 5.661C8.888 5.885 9.16467 5.99667 9.486 5.996C9.644 5.996 9.78833 5.96433 9.919 5.901C10.0497 5.83767 10.1737 5.74367 10.291 5.619L10.485 5.389C11.027 5.721 11.4503 6.171 11.755 6.739C12.0597 7.307 12.212 7.91267 12.212 8.556C12.212 9.59467 11.853 10.47 11.135 11.182C10.417 11.894 9.53867 12.25 8.5 12.25C7.46133 12.25 6.585 11.893 5.871 11.179C5.157 10.465 4.8 9.58867 4.8 8.55C4.8 7.54867 5.122 6.60867 5.766 5.73C6.40933 4.85267 7.25667 4.12233 8.308 3.539ZM2.616 19C2.168 19 1.78667 18.8427 1.472 18.528C1.15733 18.2133 1 17.8323 1 17.385V3.5C1 2.528 1.34033 1.70167 2.021 1.021C2.70167 0.340333 3.528 0 4.5 0H12.5C13.472 0 14.2983 0.340333 14.979 1.021C15.6597 1.70167 16 2.528 16 3.5V17.385C16 17.8317 15.8427 18.2127 15.528 18.528C15.2133 18.8427 14.8323 19 14.385 19H2.616ZM2 15V17.385C2 17.5643 2.05767 17.7117 2.173 17.827C2.28833 17.9423 2.436 18 2.616 18H14.385C14.5643 18 14.7117 17.9423 14.827 17.827C14.9423 17.7117 15 17.564 15 17.384V15C14.1153 15 13.507 15.1667 13.175 15.5C12.843 15.8333 12.2847 16 11.5 16C10.7027 16 10.1663 15.8333 9.891 15.5C9.61567 15.1667 9.152 15 8.5 15C7.848 15 7.38433 15.1667 7.109 15.5C6.83367 15.8333 6.29733 16 5.5 16C4.71533 16 4.16933 15.8333 3.862 15.5C3.55467 15.1667 2.934 15 2 15ZM5.5 15C6.15267 15 6.61633 14.8333 6.891 14.5C7.16567 14.1667 7.702 14 8.5 14C9.31067 14 9.86267 14.1667 10.156 14.5C10.4493 14.8333 10.8973 15 11.5 15C12.09 15 12.551 14.8333 12.883 14.5C13.215 14.1667 13.9207 14 15 14V3.5C15 2.80933 14.756 2.22 14.268 1.732C13.78 1.244 13.1907 1 12.5 1H4.5C3.80933 1 3.22 1.244 2.732 1.732C2.244 2.22 2 2.80933 2 3.5V14C3.06667 14 3.75667 14.1667 4.07 14.5C4.38333 14.8333 4.86 15 5.5 15Z" fill="#FF7700"/>
</svg>
