<svg width="24" height="24" viewBox="0 0 24 24" fill="none" xmlns="http://www.w3.org/2000/svg">
<path d="M5.616 20C5.15533 20 4.771 19.846 4.463 19.538C4.155 19.23 4.00067 18.8453 4 18.384V15.616C4 15.1553 4.15433 14.771 4.463 14.463C4.77167 14.155 5.156 14.0007 5.616 14H15.5V10H16.5V14H18.385C18.845 14 19.229 14.1543 19.537 14.463C19.845 14.7717 19.9993 15.156 20 15.616V18.385C20 18.845 19.8457 19.2293 19.537 19.538C19.2283 19.8467 18.8443 20.0007 18.385 20H5.616ZM5.616 19H18.385C18.5643 19 18.7117 18.9423 18.827 18.827C18.9423 18.7117 19 18.5643 19 18.385V15.615C19 15.4357 18.9423 15.2883 18.827 15.173C18.7117 15.0577 18.5643 15 18.385 15H5.615C5.43567 15 5.28833 15.0577 5.173 15.173C5.05767 15.2883 5 15.436 5 15.616V18.385C5 18.5643 5.05767 18.7117 5.173 18.827C5.28833 18.9423 5.436 19 5.616 19ZM7 17.77C7.21933 17.77 7.40233 17.6963 7.549 17.549C7.69567 17.4017 7.769 17.2187 7.769 17C7.769 16.7813 7.69567 16.5983 7.549 16.451C7.40233 16.3037 7.21933 16.2303 7 16.231C6.78067 16.2317 6.59767 16.305 6.451 16.451C6.30433 16.597 6.231 16.78 6.231 17C6.231 17.22 6.30433 17.403 6.451 17.549C6.59767 17.695 6.78067 17.7683 7 17.769M10.5 17.769C10.7193 17.769 10.9023 17.6957 11.049 17.549C11.1957 17.4023 11.269 17.2193 11.269 17C11.269 16.7807 11.1957 16.5977 11.049 16.451C10.9023 16.3043 10.7193 16.231 10.5 16.231C10.2807 16.231 10.0977 16.3043 9.951 16.451C9.80433 16.5977 9.731 16.7807 9.731 17C9.731 17.2193 9.80433 17.4023 9.951 17.549C10.0977 17.6957 10.2807 17.769 10.5 17.769ZM14 17.769C14.2193 17.769 14.4023 17.6957 14.549 17.549C14.6957 17.4023 14.769 17.2193 14.769 17C14.769 16.7807 14.6957 16.5977 14.549 16.451C14.4023 16.3043 14.2193 16.231 14 16.231C13.7807 16.231 13.5977 16.3043 13.451 16.451C13.3043 16.5977 13.231 16.7807 13.231 17C13.231 17.2193 13.3043 17.4023 13.451 17.549C13.5977 17.6957 13.7807 17.769 14 17.769ZM13.904 8.404L13.184 7.684C13.6173 7.284 14.0623 6.98667 14.519 6.792C14.9757 6.59733 15.4693 6.5 16 6.5C16.5307 6.5 17.024 6.59733 17.48 6.792C17.9373 6.98733 18.3827 7.285 18.816 7.685L18.096 8.404C17.8113 8.11933 17.4977 7.89767 17.155 7.739C16.8117 7.57967 16.4267 7.5 16 7.5C15.5733 7.5 15.1883 7.57967 14.845 7.739C14.5017 7.89833 14.188 8.12 13.904 8.404ZM11.404 5.904L10.696 5.196C11.3913 4.50133 12.187 3.96167 13.083 3.577C13.979 3.19233 14.9513 3 16 3C17.0487 3 18.021 3.19233 18.917 3.577C19.813 3.96167 20.6087 4.50167 21.304 5.197L20.596 5.904C20.046 5.354 19.3827 4.89933 18.606 4.54C17.8307 4.18 16.962 4 16 4C15.038 4 14.169 4.18 13.393 4.54C12.617 4.9 11.9537 5.35467 11.403 5.904" fill="#FF7700"/>
</svg>
