<svg width="25" height="25" viewBox="0 0 25 25" fill="none" xmlns="http://www.w3.org/2000/svg">
<path d="M8.4125 17.6282C8.18472 17.6282 7.99444 17.5514 7.84167 17.3979C7.68889 17.2438 7.6125 17.0528 7.6125 16.825C7.6125 16.5972 7.68924 16.4073 7.84271 16.2552C7.99618 16.1032 8.18715 16.0268 8.41563 16.0261C8.6441 16.0254 8.83403 16.1021 8.98542 16.2563C9.13681 16.4104 9.21319 16.6014 9.21458 16.8292C9.21597 17.057 9.13889 17.2469 8.98333 17.399C8.82778 17.5511 8.63715 17.6275 8.41146 17.6282M12.499 17.6282C12.2712 17.6282 12.0809 17.5514 11.9281 17.3979C11.7753 17.2445 11.699 17.0535 11.699 16.825C11.699 16.5966 11.7757 16.4066 11.9292 16.2552C12.0826 16.1038 12.2736 16.0275 12.5021 16.0261C12.7306 16.0247 12.9205 16.1014 13.0719 16.2563C13.2233 16.4111 13.2997 16.6021 13.301 16.8292C13.3024 17.0563 13.2257 17.2462 13.0708 17.399C12.916 17.5518 12.726 17.6282 12.499 17.6282ZM16.5854 17.6282C16.3576 17.6282 16.1674 17.5514 16.0146 17.3979C15.8618 17.2445 15.7854 17.0535 15.7854 16.825C15.7854 16.5966 15.8625 16.4066 16.0167 16.2552C16.1701 16.1025 16.3608 16.0261 16.5885 16.0261C16.8163 16.0261 17.0062 16.1028 17.1583 16.2563C17.3104 16.4097 17.3868 16.6007 17.3875 16.8292C17.3882 17.0577 17.3115 17.2476 17.1573 17.399C17.0031 17.5504 16.8122 17.6268 16.5844 17.6282M7.05208 13.5417C6.83681 13.5417 6.64931 13.4618 6.48958 13.3021C6.32986 13.1424 6.25 12.9549 6.25 12.7396V12.5C6.25 10.8604 6.80347 9.4469 7.91042 8.2594C9.01736 7.0719 10.3736 6.4101 11.9792 6.27399V4.68753C11.9792 4.53961 12.0292 4.416 12.1292 4.31669C12.2292 4.21739 12.3531 4.16739 12.501 4.16669C12.649 4.166 12.7726 4.216 12.8719 4.31669C12.9712 4.41739 13.0208 4.541 13.0208 4.68753V6.27399C14.6264 6.4101 15.9826 7.0719 17.0896 8.2594C18.1965 9.4469 18.75 10.8604 18.75 12.5V12.7396C18.75 12.9549 18.6701 13.1424 18.5104 13.3021C18.3507 13.4618 18.1632 13.5417 17.9479 13.5417H7.05208ZM7.29167 12.5H17.7083C17.7083 11.0591 17.2003 9.83093 16.1844 8.81565C15.1684 7.80037 13.9403 7.29239 12.5 7.29169C11.0597 7.291 9.8316 7.79899 8.81563 8.81565C7.79965 9.83232 7.29167 11.0604 7.29167 12.5ZM8.4125 20.6729C8.18472 20.6729 7.99444 20.5962 7.84167 20.4427C7.68889 20.2886 7.6125 20.0976 7.6125 19.8698C7.6125 19.642 7.68924 19.4521 7.84271 19.3C7.99618 19.1479 8.18715 19.0716 8.41563 19.0709C8.6441 19.0702 8.83403 19.1469 8.98542 19.3011C9.13681 19.4552 9.21319 19.6462 9.21458 19.874C9.21597 20.1018 9.13889 20.2917 8.98333 20.4438C8.82778 20.5959 8.63715 20.6722 8.41146 20.6729M12.499 20.6729C12.2712 20.6729 12.0809 20.5962 11.9281 20.4427C11.7753 20.2886 11.699 20.0976 11.699 19.8698C11.699 19.642 11.7757 19.4521 11.9292 19.3C12.0826 19.1479 12.2736 19.0716 12.5021 19.0709C12.7306 19.0702 12.9205 19.1469 13.0719 19.3011C13.2233 19.4552 13.2997 19.6462 13.301 19.874C13.3024 20.1018 13.2257 20.2917 13.0708 20.4438C12.916 20.5959 12.726 20.6722 12.499 20.6729ZM16.5854 20.6729C16.3576 20.6729 16.1674 20.5962 16.0146 20.4427C15.8618 20.2886 15.7854 20.0976 15.7854 19.8698C15.7854 19.642 15.8625 19.4521 16.0167 19.3C16.1708 19.1479 16.3615 19.0716 16.5885 19.0709C16.8156 19.0702 17.0056 19.1469 17.1583 19.3011C17.3111 19.4552 17.3875 19.6462 17.3875 19.874C17.3875 20.1018 17.3108 20.2917 17.1573 20.4438C17.0038 20.5959 16.8128 20.6722 16.5844 20.6729" fill="#FF7700"/>
</svg>
