<svg width="24" height="24" viewBox="0 0 24 24" fill="none" xmlns="http://www.w3.org/2000/svg">
<path d="M19 2H5C4.44772 2 4 2.44772 4 3V21C4 21.5523 4.44772 22 5 22H19C19.5523 22 20 21.5523 20 21V3C20 2.44772 19.5523 2 19 2Z" stroke="#FF7700"/>
<path d="M4 6C4 6.26522 4.10536 6.51957 4.29289 6.70711C4.48043 6.89464 4.73478 7 5 7H19C19.2652 7 19.5196 6.89464 19.7071 6.70711C19.8946 6.51957 20 6.26522 20 6V3C20 2.73478 19.8946 2.48043 19.7071 2.29289C19.5196 2.10536 19.2652 2 19 2H5C4.73478 2 4.48043 2.10536 4.29289 2.29289C4.10536 2.48043 4 2.73478 4 3V6Z" stroke="#FF7700"/>
<path d="M7 5.5C7.55228 5.5 8 5.05228 8 4.5C8 3.94772 7.55228 3.5 7 3.5C6.44772 3.5 6 3.94772 6 4.5C6 5.05228 6.44772 5.5 7 5.5Z" fill="#FF7700"/>
<path d="M10 5.5C10.5523 5.5 11 5.05228 11 4.5C11 3.94772 10.5523 3.5 10 3.5C9.44772 3.5 9 3.94772 9 4.5C9 5.05228 9.44772 5.5 10 5.5Z" fill="#FF7700"/>
<path d="M12 18C13.933 18 15.5 16.433 15.5 14.5C15.5 12.567 13.933 11 12 11C10.067 11 8.5 12.567 8.5 14.5C8.5 16.433 10.067 18 12 18Z" stroke="#FF7700"/>
</svg>
