<svg width="63" height="62" viewBox="0 0 63 62" fill="none" xmlns="http://www.w3.org/2000/svg">
<path d="M7.875 45.2083V33.5833C7.875 32.8186 8.099 32.004 8.547 31.1395C8.995 30.2749 9.646 29.6256 10.5 29.1916V23.25C10.5 21.793 11.0049 20.5676 12.0146 19.5739C13.0244 18.5802 14.2695 18.0833 15.75 18.0833H27.5625C28.4672 18.0833 29.2399 18.2667 29.8804 18.6336C30.5191 18.9987 31.059 19.5041 31.5 20.15C31.941 19.5041 32.4809 18.9987 33.1196 18.6336C33.7601 18.2667 34.5327 18.0833 35.4375 18.0833H47.25C48.7305 18.0833 49.9756 18.5802 50.9854 19.5739C51.9951 20.5676 52.5 21.793 52.5 23.25V29.1916C53.3557 29.6256 54.0067 30.2749 54.453 31.1395C54.901 32.004 55.125 32.8186 55.125 33.5833V45.2083C55.125 45.5751 54.999 45.8817 54.747 46.128C54.495 46.3743 54.1826 46.4983 53.8099 46.5C53.4371 46.5017 53.1256 46.3777 52.8754 46.128C52.6251 45.8783 52.5 45.5717 52.5 45.2083V41.3333H10.5V45.2083C10.5 45.5751 10.374 45.8817 10.122 46.128C9.87 46.3743 9.55763 46.4983 9.18488 46.5C8.81213 46.5017 8.50062 46.3777 8.25037 46.128C8.00012 45.8783 7.875 45.5717 7.875 45.2083ZM32.8125 28.4166H49.875V23.25C49.875 22.518 49.623 21.9049 49.119 21.4106C48.615 20.9164 47.992 20.6684 47.25 20.6666H35.4375C34.6938 20.6666 34.0707 20.9146 33.5685 21.4106C33.0662 21.9066 32.8142 22.5198 32.8125 23.25V28.4166ZM13.125 28.4166H30.1875V23.25C30.1875 22.518 29.9355 21.9049 29.4315 21.4106C28.9275 20.9164 28.3045 20.6684 27.5625 20.6666H15.75C15.0062 20.6666 14.3833 20.9146 13.881 21.4106C13.3788 21.9066 13.1267 22.5198 13.125 23.25V28.4166ZM10.5 38.75H52.5V33.5833C52.5 32.8514 52.248 32.2383 51.744 31.744C51.24 31.2497 50.617 31.0017 49.875 31H13.125C12.3812 31 11.7582 31.248 11.256 31.744C10.7538 32.24 10.5017 32.8531 10.5 33.5833V38.75Z" fill="black"/>
</svg>
