<svg width="44" height="47" viewBox="0 0 44 47" fill="none" xmlns="http://www.w3.org/2000/svg">
<path d="M19 2C19.3315 2 19.6495 2.1317 19.8839 2.36612C20.1183 2.60054 20.25 2.91848 20.25 3.25V7H22.75C23.7446 7 24.6984 7.39509 25.4017 8.09835C26.1049 8.80161 26.5 9.75544 26.5 10.75V19.5H32.75C33.7446 19.5 34.6984 19.8951 35.4016 20.5983C36.1049 21.3016 36.5 22.2554 36.5 23.25V38.25C36.5 39.2446 36.1049 40.1984 35.4016 40.9016C34.6984 41.6049 33.7446 42 32.75 42H5.25C4.25544 42 3.30161 41.6049 2.59835 40.9016C1.89509 40.1984 1.5 39.2446 1.5 38.25V22.79C1.50004 22.1426 1.66768 21.5062 1.98662 20.9428C2.30556 20.3794 2.76492 19.9082 3.32 19.575L10.82 15.075C11.0352 14.9441 11.263 14.8352 11.5 14.75V10.75C11.5 9.75544 11.8951 8.80161 12.5983 8.09835C13.3016 7.39509 14.2554 7 15.25 7H17.75V3.25C17.75 2.91848 17.8817 2.60054 18.1161 2.36612C18.3505 2.1317 18.6685 2 19 2ZM14 14.755C15.4075 15.255 16.5 16.58 16.5 18.29V39.5H21.5V23.25C21.4996 22.4742 21.7398 21.7173 22.1876 21.0838C22.6353 20.4502 23.2686 19.9711 24 19.7125V10.7525C24 10.421 23.8683 10.103 23.6339 9.86862C23.3995 9.6342 23.0815 9.5025 22.75 9.5025H15.25C14.9185 9.5025 14.6005 9.6342 14.3661 9.86862C14.1317 10.103 14 10.421 14 10.7525V14.755ZM25.25 22C24.9185 22 24.6005 22.1317 24.3661 22.3661C24.1317 22.6005 24 22.9185 24 23.25V39.5H32.75C33.0815 39.5 33.3995 39.3683 33.6339 39.1339C33.8683 38.8995 34 38.5815 34 38.25V23.25C34 22.9185 33.8683 22.6005 33.6339 22.3661C33.3995 22.1317 33.0815 22 32.75 22H25.25ZM12.1075 17.2175L4.6075 21.7175C4.42183 21.8288 4.26824 21.9863 4.16175 22.1748C4.05526 22.3632 3.99952 22.5761 4 22.7925V38.25C4 38.5815 4.1317 38.8995 4.36612 39.1339C4.60054 39.3683 4.91848 39.5 5.25 39.5H14V18.29C14 18.0688 13.9414 17.8516 13.8301 17.6605C13.7188 17.4694 13.5587 17.3113 13.3663 17.2022C13.1739 17.0932 12.956 17.0371 12.7348 17.0398C12.5137 17.0425 12.2972 17.1038 12.1075 17.2175Z" fill="black"/>
</svg>
