<svg width="39" height="39" viewBox="0 0 39 39" fill="none" xmlns="http://www.w3.org/2000/svg">
<path d="M37.4154 1.17317C37.5941 1.27675 37.7415 1.42141 37.8438 1.5934C37.9461 1.7654 37.9999 1.95905 38 2.15599V36.8437C38 37.1504 37.8701 37.4445 37.6388 37.6613C37.4075 37.8782 37.0938 38 36.7667 38H29.3667C29.0396 38 28.7259 37.8782 28.4946 37.6613C28.2633 37.4445 28.1333 37.1504 28.1333 36.8437V33.375H25.6667V36.8437C25.6667 37.1504 25.5367 37.4445 25.3054 37.6613C25.0741 37.8782 24.7604 38 24.4333 38H2.23333C1.90623 38 1.59253 37.8782 1.36123 37.6613C1.12994 37.4445 1 37.1504 1 36.8437V24.1249C1.0002 23.8823 1.08177 23.6459 1.23316 23.4492C1.38456 23.2525 1.59811 23.1054 1.8436 23.0288L15.8 18.6674V11.4061C15.8 11.1915 15.8637 10.9812 15.9839 10.7986C16.1042 10.6161 16.2762 10.4685 16.4808 10.3724L36.2141 1.12229C36.4024 1.03397 36.6116 0.992273 36.8218 1.00118C37.0321 1.01008 37.2364 1.06929 37.4154 1.17317ZM15.8 21.1048L3.46667 24.9574V35.6875H15.8V21.1048ZM18.2667 35.6875H23.2V32.2187C23.2 31.912 23.3299 31.6179 23.5612 31.4011C23.7925 31.1843 24.1062 31.0624 24.4333 31.0624H29.3667C29.6938 31.0624 30.0075 31.1843 30.2388 31.4011C30.4701 31.6179 30.6 31.912 30.6 32.2187V35.6875H35.5333V4.02681L18.2667 12.1206V35.6875Z" fill="black" stroke="black" stroke-width="0.1"/>
<path d="M6.18335 26.6877H8.15002V28.5002H6.18335V26.6877ZM11.1167 26.6877H13.0833V28.5002H11.1167V26.6877ZM6.18335 31.3127H8.15002V33.1252H6.18335V31.3127ZM11.1167 31.3127H13.0833V33.1252H11.1167V31.3127ZM20.9833 22.0627H22.95V23.8752H20.9833V22.0627ZM25.9167 22.0627H27.8834V23.8752H25.9167V22.0627ZM20.9833 26.6877H22.95V28.5002H20.9833V26.6877ZM25.9167 26.6877H27.8834V28.5002H25.9167V26.6877ZM30.85 22.0627H32.8167V23.8752H30.85V22.0627ZM30.85 26.6877H32.8167V28.5002H30.85V26.6877ZM20.9833 17.4376H22.95V19.2501H20.9833V17.4376ZM25.9167 17.4376H27.8834V19.2501H25.9167V17.4376ZM30.85 17.4376H32.8167V19.2501H30.85V17.4376ZM20.9833 12.8126H22.95V14.6251H20.9833V12.8126ZM25.9167 12.8126H27.8834V14.6251H25.9167V12.8126ZM30.85 12.8126H32.8167V14.6251H30.85V12.8126ZM30.85 8.18756H32.8167V10.0001H30.85V8.18756Z" fill="black" stroke="black" stroke-width="0.5"/>
</svg>
